PathFileType	4	(X/Y/Z)	C:\Users\Basilio\Documents\Thesis Gigler\squatting_fais\c3dfiles\077\SLS_front_pre5\markers_experimental.trc
DataRate	CameraRate	NumFrames	NumMarkers	Units	OrigDataRate	OrigDataStartFrame	OrigNumFrames
200.000000	200.000000	4	60	mm	200.000000	786	1572
Frame#	Time	FHD			LBHD			RBHD			C7			T10			CLAV			LSHO			LUUPA			LMUPA			LDUPA			LLEP			LMEP			LRAD			LUL			LRFIN			RSHO			RUPA1			RMUPA			RDUPA			RLEP			RMEP			RRAD			RUL			RUFIN			LASI			RASI			USACR			LSACR			RSACR			LTHI1			LTHI2			LTHI3			LTHI4			LLFC			LMFC			LTIB1			LTIB2			LTIB3			LTIB4			LLMAL			LHEE			LMT1			LMT2			LMT5			RTHI			RTHI2			RTHI3			RTHI4			RLFC			RMFC			RTIB1			RTIB2			RTIB3			RTIB4			RLMAL			RMMAL			RHEE			RMT1			RMT2			RMT5			
		X1	Y1	Z1	X2	Y2	Z2	X3	Y3	Z3	X4	Y4	Z4	X5	Y5	Z5	X6	Y6	Z6	X7	Y7	Z7	X8	Y8	Z8	X9	Y9	Z9	X10	Y10	Z10	X11	Y11	Z11	X12	Y12	Z12	X13	Y13	Z13	X14	Y14	Z14	X15	Y15	Z15	X16	Y16	Z16	X17	Y17	Z17	X18	Y18	Z18	X19	Y19	Z19	X20	Y20	Z20	X21	Y21	Z21	X22	Y22	Z22	X23	Y23	Z23	X24	Y24	Z24	X25	Y25	Z25	X26	Y26	Z26	X27	Y27	Z27	X28	Y28	Z28	X29	Y29	Z29	X30	Y30	Z30	X31	Y31	Z31	X32	Y32	Z32	X33	Y33	Z33	X34	Y34	Z34	X35	Y35	Z35	X36	Y36	Z36	X37	Y37	Z37	X38	Y38	Z38	X39	Y39	Z39	X40	Y40	Z40	X41	Y41	Z41	X42	Y42	Z42	X43	Y43	Z43	X44	Y44	Z44	X45	Y45	Z45	X46	Y46	Z46	X47	Y47	Z47	X48	Y48	Z48	X49	Y49	Z49	X50	Y50	Z50	X51	Y51	Z51	X52	Y52	Z52	X53	Y53	Z53	X54	Y54	Z54	X55	Y55	Z55	X56	Y56	Z56	X57	Y57	Z57	X58	Y58	Z58	X59	Y59	Z59	X60	Y60	Z60	

787	3.93	-316.0727233886719	1608.74755859375	-1064.875244140625	-444.7599487304689	1489.736206054688	-1138.90673828125	-452.806610107422	1481.6044921875	-992.928161621094	-481.7561035156251	1352.849487304688	-1085.205688476563	-520.2320556640626	1026.161499023438	-1048.27294921875	nan	nan	nan	-331.0548095703126	1350.636352539063	-1237.055541992188	-163.8455963134766	1331.94677734375	-1337.758178710938	-138.4931030273438	1364.517578125	-1309.910034179688	-94.83662414550783	1340.037841796875	-1344.18017578125	-32.30939102172852	1358.604858398438	-1338.247802734375	-15.21799468994141	1291.529052734375	-1312.672607421875	250.8804779052735	1433.743041992188	-1219.777099609375	256.0396728515626	1445.539428710938	-1298.788940429688	346.3910217285157	1471.968383789063	-1223.916870117188	-348.1102294921876	1352.99365234375	-915.3887329101565	-194.0806274414063	1340.493530273438	-803.9160156250002	-171.5930480957032	1368.048461914063	-838.0000610351565	-124.7469711303711	1350.328125	-803.0968017578127	-59.82482910156251	1364.638427734375	-813.6858520507815	-46.02725982666016	1290.927856445313	-837.1804809570315	213.1090698242188	1415.196533203125	-935.7679443359377	227.2218933105469	1437.114868164063	-861.1491699218752	307.5621337890626	1448.594360351563	-946.550720214844	-304.6528625488282	851.7659912109377	-1147.882934570313	-350.3901062011719	871.3958129882815	-874.6590576171877	-523.4848632812501	890.069519042969	-1033.498168945313	-522.5415039062501	861.6076660156252	-1062.56005859375	-530.1418457031251	854.6864013671877	-1009.251098632813	-246.5849761962891	658.7239990234376	-1211.698974609375	-174.8431549072266	615.1138916015626	-1212.154663085938	-135.9234466552735	644.9576416015626	-1207.391235351563	-167.3751373291016	555.7792968750001	-1199.085693359375	-63.1721534729004	447.2178955078126	-1169.641967773438	-47.87577056884766	442.7803039550782	-1033.630859375	-156.352035522461	267.6597290039063	-1063.480712890625	-211.8172454833985	240.6366271972657	-1130.849487304688	-189.6896514892578	224.5622100830079	-1092.300903320313	-247.8365783691407	181.1715850830078	-1051.444091796875	-368.7994689941407	119.7159576416016	-1089.892333984375	-442.5521545410157	100.6920242309571	-1033.039672851563	-230.6063079833985	56.83886337280275	-1055.576782226563	-243.7499542236329	42.17781448364259	-1103.010986328125	-338.7837219238282	133.7289276123047	-1004.729187011719	-106.9415740966797	766.3519287109376	-817.3867187500002	-50.88579559326173	803.777770996094	-819.6611328125002	-51.34853744506837	838.1199340820315	-826.6026611328127	24.70592689514161	774.452575683594	-836.9891357421877	85.6752166748047	755.4063110351564	-845.9887695312502	100.8996353149414	782.9111328125002	-970.3460693359377	225.1299591064454	714.9594116210939	-880.7305908203127	246.8152770996094	613.1582031250001	-860.3516235351565	274.8714294433594	643.6199951171876	-881.5799560546877	305.6749572753907	624.3158569335939	-927.9996337890627	403.4734802246095	452.5166015625001	-913.837097167969	404.267059326172	488.2923278808595	-998.5477294921877	396.8286743164064	381.7394104003907	-979.1702880859377	530.9584960937501	565.2598876953126	-956.177917480469	530.2747192382814	558.1013793945314	-917.6159667968752	540.1325073242189	524.7798461914064	-875.5424804687502	
788	3.935	-316.0378417968751	1608.834716796875	-1064.519287109375	-444.6846313476564	1489.747314453125	-1138.621337890625	-452.6756286621095	1481.699584960938	-992.600524902344	-481.7213134765626	1352.8583984375	-1084.931030273438	-520.2451782226564	1026.218627929688	-1048.18701171875	nan	nan	nan	-330.9042358398438	1350.688842773438	-1236.678588867188	-163.6274566650391	1331.974731445313	-1337.496948242188	-138.0712432861328	1364.497802734375	-1309.341186523438	-94.60962677001955	1340.158569335938	-1343.708251953125	-32.29828643798829	1358.691772460938	-1338.087768554688	-14.99287605285645	1291.727172851563	-1312.296997070313	251.2300872802735	1433.924560546875	-1219.217529296875	255.9068298339844	1445.629516601563	-1298.336791992188	346.3590087890626	1472.006591796875	-1223.490478515625	-348.2698364257813	1352.896850585938	-915.057800292969	-194.2527770996094	1340.25341796875	-803.6336059570315	-171.682357788086	1368.074584960938	-837.694763183594	-124.8383407592774	1350.271118164063	-802.8336181640627	-59.94100570678712	1364.536743164063	-813.3638305664065	-46.09252548217774	1290.893310546875	-836.8966064453127	212.8175048828126	1415.306274414063	-935.4429321289065	227.0142822265626	1437.085083007813	-860.8323364257815	307.1615600585938	1448.69970703125	-946.1192016601565	-304.4808349609376	851.9407958984377	-1147.733276367188	-350.4089660644532	871.5977172851565	-874.5496826171877	-523.4540405273439	889.983581542969	-1033.5126953125	-522.4557495117189	861.5681762695315	-1062.522705078125	-530.0717163085939	854.6718750000002	-1009.283935546875	-246.4321899414063	658.7986450195314	-1211.447998046875	-174.7212524414063	615.0943603515626	-1211.867553710938	-135.8568878173828	644.9626464843751	-1207.127319335938	-167.1421813964844	555.8295898437501	-1198.850952148438	-63.01481246948244	447.3062744140626	-1169.338134765625	-47.84341430664063	442.6882934570314	-1033.34375	-157.1994781494141	266.5384216308594	-1063.6328125	-211.6590576171876	240.4988403320313	-1130.518310546875	-189.5755157470703	224.4681854248047	-1091.984741210938	-247.8359069824219	181.1546173095703	-1051.197998046875	-368.6806030273438	119.7348785400391	-1089.805419921875	-442.5382080078126	100.7149658203125	-1032.9990234375	-230.2938079833985	56.70892333984376	-1055.442749023438	-243.7551879882813	42.15427780151368	-1103.000610351563	-338.8164367675782	133.7442626953125	-1004.614868164063	-106.9938659667969	766.6383056640626	-817.2852783203127	-50.99813079833986	804.0478515625002	-819.4675903320315	-51.51663208007814	838.3943481445315	-826.5303344726565	24.4299659729004	774.7670898437502	-836.969909667969	85.58715057373048	755.8902587890626	-845.946472167969	100.5751495361328	783.5789794921877	-970.298034667969	225.1161499023438	715.5688476562501	-880.7756958007815	246.6273803710938	613.7201538085939	-860.3435058593752	274.5360717773438	644.2832641601564	-881.647644042969	305.5600280761719	624.8291625976564	-928.168884277344	403.1503906250001	452.9791259765626	-914.2189941406252	403.8056030273439	488.9255676269532	-999.1026000976565	396.2634277343751	382.4202880859376	-979.5088500976565	530.7435302734376	565.5797729492189	-956.6138305664065	530.1594238281251	558.1602172851564	-918.0594482421877	540.0474853515626	524.9745483398439	-876.0357666015627	
789	3.94	-315.9205017089844	1608.679443359375	-1064.160888671875	-444.6693115234376	1489.88134765625	-1138.197387695313	-452.5825195312501	1481.759643554688	-992.0897216796877	-481.7166442871095	1352.843017578125	-1084.607666015625	-520.1881103515626	1026.204833984375	-1048.144775390625	nan	nan	nan	-330.7057800292969	1350.8154296875	-1236.291381835938	-163.5438842773438	1332.2060546875	-1337.21435546875	-137.7750549316407	1364.4130859375	-1308.704833984375	-94.30479431152345	1340.316528320313	-1343.3056640625	-32.04854583740235	1358.692260742188	-1337.854858398438	-14.72906017303467	1291.76806640625	-1311.894775390625	251.2854309082032	1434.060302734375	-1218.708374023438	256.1036376953126	1445.69384765625	-1297.897094726563	345.8760375976563	1471.80810546875	-1223.033203125	-348.4049987792969	1352.762329101563	-914.703308105469	-194.4324951171876	1340.094604492188	-803.322692871094	-171.854965209961	1367.947509765625	-837.3331298828127	-125.0495147705078	1350.091186523438	-802.543151855469	-60.15207672119142	1364.426147460938	-813.0398559570315	-46.22607040405274	1290.802124023438	-836.5606689453127	212.5136260986329	1415.617919921875	-935.153259277344	226.7943725585938	1437.25732421875	-860.5509033203127	306.8250427246094	1449.2470703125	-945.6033325195315	-304.3788757324219	851.5888671875002	-1147.612060546875	-350.3453369140626	871.323425292969	-874.446960449219	-523.3482055664064	889.9665527343752	-1033.44189453125	-522.3795166015626	861.542907714844	-1062.475219726563	-530.0167236328126	854.6950683593752	-1009.24365234375	-246.3868408203126	658.8676757812501	-1211.24951171875	-173.6712341308594	614.7081909179689	-1211.349487304688	-135.6981811523438	644.9227294921876	-1206.873413085938	-167.0690002441407	555.8568115234376	-1198.620849609375	-62.95325088500978	447.3641357421876	-1168.8681640625	-47.81803512573243	442.6479492187501	-1033.023193359375	-157.1193084716797	266.5789794921876	-1063.366943359375	-211.5633392333985	240.4869232177735	-1130.3046875	-189.5753631591797	224.6141204833985	-1091.770751953125	-247.7723388671876	181.2745056152344	-1050.955444335938	-368.6741027832032	119.8310699462891	-1089.68603515625	-442.5276794433595	100.7181167602539	-1032.936889648438	-230.4441680908204	56.79420471191408	-1055.475341796875	-243.6405487060547	41.89165878295899	-1102.954711914063	-338.8395690917969	133.718734741211	-1004.449584960938	-107.0999221801758	766.9414672851564	-817.2115478515627	-51.12985992431642	804.4898681640627	-819.3791503906252	-51.60055541992189	838.7036132812502	-826.3959960937502	24.63898468017579	775.5661621093752	-836.7705688476565	85.5972366333008	756.4513549804689	-845.8637695312502	100.787841796875	784.290222167969	-970.223815917969	225.0620880126954	716.1323852539064	-880.8664550781252	246.3486480712891	614.0885620117189	-860.5711059570315	274.3105163574219	644.7750244140626	-881.7813720703127	305.4244384765626	625.3491210937501	-928.389587402344	402.8603820800782	453.475555419922	-914.653503417969	403.4009399414064	489.4461975097657	-999.6858520507815	395.8606262207032	382.9722900390626	-980.1965332031252	530.5438232421876	565.9373779296876	-957.0711669921877	530.0159301757814	558.1798095703126	-918.5289306640627	539.8002929687501	524.8764648437501	-876.537048339844	
790	3.945	-315.8486328125001	1608.734375	-1063.70703125	-444.555877685547	1489.936157226563	-1137.883178710938	-452.4315490722657	1482.21484375	-991.737731933594	-481.3387145996095	1352.616455078125	-1084.250732421875	-520.1665649414064	1026.216064453125	-1048.08447265625	nan	nan	nan	-330.6890869140626	1350.890747070313	-1236.000610351563	-163.1982421875	1332.28662109375	-1336.746337890625	-137.6237335205078	1364.571044921875	-1308.220703125	-93.86668395996095	1340.24951171875	-1342.58056640625	-31.73773765563966	1358.746337890625	-1337.445068359375	-14.57304954528809	1291.85791015625	-1311.616943359375	254.2663269042969	1434.580200195313	-1217.265380859375	256.2726745605469	1446.002075195313	-1297.36572265625	346.4378662109376	1472.57763671875	-1222.112182617188	-348.5422973632813	1352.684814453125	-914.3701782226565	-194.6369628906251	1339.979614257813	-802.948913574219	-172.0923461914063	1367.760986328125	-837.0186157226565	-125.1986846923828	1350.082763671875	-802.158386230469	-60.32661056518556	1364.307250976563	-812.6655883789065	-46.3940773010254	1290.704833984375	-836.302429199219	212.1955718994141	1415.819091796875	-934.7167968750002	226.5603332519532	1437.318969726563	-860.122741699219	306.6313171386719	1449.154907226563	-945.5542602539065	-304.0762939453126	852.0942993164065	-1147.14111328125	-350.6219482421876	871.8811035156252	-874.0842285156252	-523.3936767578126	889.9324340820315	-1033.435302734375	-522.2864990234376	861.492370605469	-1062.4375	-530.0073242187501	854.6639404296877	-1009.217224121094	-246.3226013183594	658.8760986328126	-1211.08642578125	-174.4100799560547	614.9739990234376	-1211.266845703125	-135.7202453613282	644.9335327148439	-1206.67041015625	-166.8194885253907	555.8300170898439	-1198.365112304688	-62.88873291015626	447.3955993652345	-1168.552001953125	-47.73021316528321	442.738739013672	-1032.739379882813	-157.0773010253907	266.5672607421876	-1063.060668945313	-211.5701751708985	240.5018615722657	-1130.061279296875	-189.5172729492188	224.4951934814454	-1091.45654296875	-247.7285461425782	181.3742218017578	-1050.762451171875	-368.6905822753907	119.9600906372071	-1089.578125	-442.5357666015626	100.7268524169922	-1032.885131835938	-230.3531646728516	56.71985626220705	-1055.364501953125	-243.608871459961	41.92284774780274	-1102.911987304688	-338.8206481933594	133.7097473144532	-1004.352233886719	-107.1497039794922	767.1954345703126	-817.210876464844	-51.25377273559572	804.860046386719	-819.3020019531252	-51.64832305908205	839.2322998046877	-826.1979980468752	24.70383644104005	776.3843994140627	-836.5734863281252	85.63611602783205	756.9968872070314	-845.7366333007815	101.2270736694336	785.0661621093752	-970.0173339843752	224.8905181884766	716.7529296875001	-880.975036621094	246.3175354003907	614.7459716796876	-860.7993774414065	274.1036071777344	645.2637329101564	-882.0064086914065	304.7759704589844	626.0698852539064	-928.8931884765627	402.6084899902345	453.9082641601564	-915.1008300781252	403.0335693359376	490.0408020019532	-1000.011962890625	395.5614013671876	383.6242980957032	-980.9000244140627	530.3233642578126	566.3334350585939	-957.4328613281252	529.8654785156251	558.5397949218751	-918.896179199219	539.6469726562501	525.0345458984376	-877.0563964843752	
